<?xml version="1.0" encoding="UTF-8" standalone="no"?>
<svg
   width="16"
   height="16"
   fill="currentColor"
   class="bi bi-cassette"
   viewBox="0 0 16 16"
   version="1.1"
   id="svg2"
   sodipodi:docname="white_cassette.svg"
   inkscape:version="1.4.2 (f4327f4, 2025-05-13)"
   xmlns:inkscape="http://www.inkscape.org/namespaces/inkscape"
   xmlns:sodipodi="http://sodipodi.sourceforge.net/DTD/sodipodi-0.dtd"
   xmlns="http://www.w3.org/2000/svg"
   xmlns:svg="http://www.w3.org/2000/svg">
  <defs
     id="defs2" />
  <sodipodi:namedview
     id="namedview2"
     pagecolor="#ffffff"
     bordercolor="#000000"
     borderopacity="0.25"
     inkscape:showpageshadow="2"
     inkscape:pageopacity="0.0"
     inkscape:pagecheckerboard="0"
     inkscape:deskcolor="#d1d1d1"
     inkscape:zoom="55.3125"
     inkscape:cx="7.9909605"
     inkscape:cy="8"
     inkscape:window-width="1920"
     inkscape:window-height="1129"
     inkscape:window-x="-8"
     inkscape:window-y="-8"
     inkscape:window-maximized="1"
     inkscape:current-layer="svg2" />
  <path
     d="M4 8a1 1 0 1 0 0-2 1 1 0 0 0 0 2m9-1a1 1 0 1 1-2 0 1 1 0 0 1 2 0M7 6a1 1 0 0 0 0 2h2a1 1 0 1 0 0-2z"
     id="path1"
     style="fill:#ffffff" />
  <path
     d="M1.5 2A1.5 1.5 0 0 0 0 3.5v9A1.5 1.5 0 0 0 1.5 14h13a1.5 1.5 0 0 0 1.5-1.5v-9A1.5 1.5 0 0 0 14.5 2zM1 3.5a.5.5 0 0 1 .5-.5h13a.5.5 0 0 1 .5.5v9a.5.5 0 0 1-.5.5h-.691l-1.362-2.724A.5.5 0 0 0 12 10H4a.5.5 0 0 0-.447.276L2.19 13H1.5a.5.5 0 0 1-.5-.5zM11.691 11l1 2H3.309l1-2z"
     id="path2"
     style="fill:#ffffff" />
</svg>
